<svg xmlns="http://www.w3.org/2000/svg" xmlns:v="https://svgstorm.com"
viewBox = "0 0 1663 1539"
width="1663"
height="1539">
<g fill="None" fill-opacity="0.0" stroke="#1119CC" stroke-opacity="1.00" stroke-width="0.3"><path d="
M 0.00 1539.00 
L 1663.00 1539.00
L 1663.00 0.00
L 0.00 0.00
L 0.00 1539.00
M 877.00 144.00 
C 916.48 147.82 964.27 153.19 1001.67 163.33 C 1039.07 173.46 1075.73 184.98 1109.68 200.32 C 1143.63 215.67 1172.73 231.52 1202.70 251.30 C 1232.67 271.09 1258.07 290.39 1284.75 314.25 C 1311.44 338.11 1332.67 360.60 1354.30 388.70 C 1375.93 416.80 1395.45 443.12 1412.75 475.25 C 1430.06 507.38 1445.34 538.39 1457.32 574.68 C 1469.31 610.96 1480.24 651.30 1485.78 691.22 C 1491.32 731.15 1494.41 785.55 1492.00 827.00 C 1489.59 868.45 1481.49 913.92 1472.07 952.07 C 1462.66 990.22 1449.64 1024.24 1434.23 1058.23 C 1418.82 1092.22 1402.63 1121.74 1382.25 1151.25 C 1361.86 1180.75 1342.99 1205.46 1318.25 1231.25 C 1293.50 1257.03 1270.78 1278.62 1242.30 1300.30 C 1213.83 1321.99 1187.95 1340.03 1155.77 1357.77 C 1123.59 1375.51 1091.05 1389.35 1054.98 1401.98 C 1018.90 1414.60 979.88 1425.03 940.00 1431.00 C 900.12 1436.97 845.66 1440.31 804.00 1438.00 C 762.35 1435.69 717.91 1427.99 679.78 1418.22 C 641.64 1408.46 606.08 1396.51 571.92 1381.08 C 537.77 1365.65 508.77 1350.21 478.92 1330.08 C 449.07 1309.95 423.46 1291.18 397.25 1266.75 C 371.03 1242.33 349.55 1220.61 327.25 1192.75 C 304.95 1164.90 287.08 1137.77 269.08 1105.92 C 251.08 1074.08 237.28 1042.62 224.22 1006.78 C 211.17 970.93 201.51 930.71 195.00 891.00 C 188.50 851.29 185.86 797.69 188.00 756.00 C 190.14 714.31 195.98 667.12 205.98 628.98 C 215.98 590.83 227.11 555.86 242.92 521.92 C 258.74 487.99 274.77 458.80 294.92 428.92 C 315.06 399.04 334.25 375.09 358.75 348.75 C 383.26 322.41 406.99 301.65 435.25 280.25 C 463.51 258.85 490.43 240.90 522.75 223.75 C 555.06 206.59 587.13 191.17 623.68 179.68 C 660.22 168.18 698.43 155.77 739.02 151.02 C 779.62 146.28 833.59 139.80 877.00 144.00 Z"/>
</g>
<g fill="None" fill-opacity="0.0" stroke="#1119CC" stroke-opacity="1.00" stroke-width="0.3"><path d="
M 877.00 144.00 1119CC
C 833.59 139.80 779.62 146.28 739.02 151.02 C 698.43 155.77 660.22 168.18 623.68 179.68 C 587.13 191.17 555.06 206.59 522.75 223.75 C 490.43 240.90 463.51 258.85 435.25 280.25 C 406.99 301.65 383.26 322.41 358.75 348.75 C 334.25 375.09 315.06 399.04 294.92 428.92 C 274.77 458.80 258.74 487.99 242.92 521.92 C 227.11 555.86 215.98 590.83 205.98 628.98 C 195.98 667.12 190.14 714.31 188.00 756.00 C 185.86 797.69 188.50 851.29 195.00 891.00 C 201.51 930.71 211.17 970.93 224.22 1006.78 C 237.28 1042.62 251.08 1074.08 269.08 1105.92 C 287.08 1137.77 304.95 1164.90 327.25 1192.75 C 349.55 1220.61 371.03 1242.33 397.25 1266.75 C 423.46 1291.18 449.07 1309.95 478.92 1330.08 C 508.77 1350.21 537.77 1365.65 571.92 1381.08 C 606.08 1396.51 641.64 1408.46 679.78 1418.22 C 717.91 1427.99 762.35 1435.69 804.00 1438.00 C 845.66 1440.31 900.12 1436.97 940.00 1431.00 C 979.88 1425.03 1018.90 1414.60 1054.98 1401.98 C 1091.05 1389.35 1123.59 1375.51 1155.77 1357.77 C 1187.95 1340.03 1213.83 1321.99 1242.30 1300.30 C 1270.78 1278.62 1293.50 1257.03 1318.25 1231.25 C 1342.99 1205.46 1361.86 1180.75 1382.25 1151.25 C 1402.63 1121.74 1418.82 1092.22 1434.23 1058.23 C 1449.64 1024.24 1462.66 990.22 1472.07 952.07 C 1481.49 913.92 1489.59 868.45 1492.00 827.00 C 1494.41 785.55 1491.32 731.15 1485.78 691.22 C 1480.24 651.30 1469.31 610.96 1457.32 574.68 C 1445.34 538.39 1430.06 507.38 1412.75 475.25 C 1395.45 443.12 1375.93 416.80 1354.30 388.70 C 1332.67 360.60 1311.44 338.11 1284.75 314.25 C 1258.07 290.39 1232.67 271.09 1202.70 251.30 C 1172.73 231.52 1143.63 215.67 1109.68 200.32 C 1075.73 184.98 1039.07 173.46 1001.67 163.33 C 964.27 153.19 916.48 147.82 877.00 144.00
M 859.00 186.00 
C 898.03 189.78 945.62 193.07 982.67 202.33 C 1019.72 211.59 1054.80 223.08 1088.22 237.78 C 1121.64 252.47 1149.77 267.62 1179.25 286.75 C 1208.73 305.88 1232.40 324.92 1258.25 348.75 C 1284.10 372.58 1304.97 394.19 1326.30 421.70 C 1347.63 449.21 1365.32 474.16 1382.25 505.75 C 1399.19 537.33 1412.62 568.65 1424.98 604.02 C 1437.34 639.40 1445.91 679.86 1451.00 719.00 C 1456.09 758.14 1458.28 810.16 1454.00 850.00 C 1449.72 889.84 1442.99 932.66 1432.07 969.07 C 1421.16 1005.49 1408.98 1037.19 1392.70 1069.69 C 1376.41 1102.20 1359.60 1128.46 1339.23 1157.23 C 1318.86 1186.00 1297.90 1207.78 1273.25 1232.25 C 1248.60 1256.72 1225.40 1276.15 1196.92 1295.92 C 1168.43 1315.68 1140.91 1332.84 1108.31 1348.31 C 1075.70 1363.77 1042.41 1377.06 1005.93 1386.93 C 969.45 1396.80 926.76 1405.17 887.00 1408.00 C 847.24 1410.83 794.91 1409.54 756.00 1404.00 C 717.08 1398.46 678.39 1388.63 642.98 1377.02 C 607.57 1365.42 576.29 1351.15 544.77 1334.23 C 513.26 1317.31 486.91 1299.92 459.30 1278.70 C 431.70 1257.47 409.71 1237.42 386.10 1211.90 C 362.49 1186.38 342.74 1162.58 323.75 1133.25 C 304.75 1103.93 288.26 1075.44 274.08 1041.92 C 259.89 1008.41 247.80 974.31 239.07 936.93 C 230.35 899.55 224.70 854.09 223.02 813.98 C 221.35 773.86 227.34 722.75 233.93 684.93 C 240.52 647.10 251.89 609.38 265.31 575.31 C 278.73 541.23 293.88 511.09 311.92 480.92 C 329.96 450.75 348.25 426.00 370.77 399.77 C 393.29 373.54 415.44 352.18 442.25 330.25 C 469.05 308.31 494.00 288.99 524.75 271.75 C 555.50 254.50 584.68 238.83 619.23 226.23 C 653.78 213.63 691.62 201.70 730.00 196.00 C 768.39 190.30 817.88 182.02 859.00 186.00 Z"/>
</g>
<g fill="None" fill-opacity="0.0" stroke="#F8F9FB" stroke-opacity="1.00" stroke-width="0.3"><path d="
M 859.00 186.00 
C 817.88 182.02 768.39 190.30 730.00 196.00 C 691.62 201.70 653.78 213.63 619.23 226.23 C 584.68 238.83 555.50 254.50 524.75 271.75 C 494.00 288.99 469.05 308.31 442.25 330.25 C 415.44 352.18 393.29 373.54 370.77 399.77 C 348.25 426.00 329.96 450.75 311.92 480.92 C 293.88 511.09 278.73 541.23 265.31 575.31 C 251.89 609.38 240.52 647.10 233.93 684.93 C 227.34 722.75 221.35 773.86 223.02 813.98 C 224.70 854.09 230.35 899.55 239.07 936.93 C 247.80 974.31 259.89 1008.41 274.08 1041.92 C 288.26 1075.44 304.75 1103.93 323.75 1133.25 C 342.74 1162.58 362.49 1186.38 386.10 1211.90 C 409.71 1237.42 431.70 1257.47 459.30 1278.70 C 486.91 1299.92 513.26 1317.31 544.77 1334.23 C 576.29 1351.15 607.57 1365.42 642.98 1377.02 C 678.39 1388.63 717.08 1398.46 756.00 1404.00 C 794.91 1409.54 847.24 1410.83 887.00 1408.00 C 926.76 1405.17 969.45 1396.80 1005.93 1386.93 C 1042.41 1377.06 1075.70 1363.77 1108.31 1348.31 C 1140.91 1332.84 1168.43 1315.68 1196.92 1295.92 C 1225.40 1276.15 1248.60 1256.72 1273.25 1232.25 C 1297.90 1207.78 1318.86 1186.00 1339.23 1157.23 C 1359.60 1128.46 1376.41 1102.20 1392.70 1069.69 C 1408.98 1037.19 1421.16 1005.49 1432.07 969.07 C 1442.99 932.66 1449.72 889.84 1454.00 850.00 C 1458.28 810.16 1456.09 758.14 1451.00 719.00 C 1445.91 679.86 1437.34 639.40 1424.98 604.02 C 1412.62 568.65 1399.19 537.33 1382.25 505.75 C 1365.32 474.16 1347.63 449.21 1326.30 421.70 C 1304.97 394.19 1284.10 372.58 1258.25 348.75 C 1232.40 324.92 1208.73 305.88 1179.25 286.75 C 1149.77 267.62 1121.64 252.47 1088.22 237.78 C 1054.80 223.08 1019.72 211.59 982.67 202.33 C 945.62 193.07 898.03 189.78 859.00 186.00
M 869.00 292.00 
C 906.06 295.59 951.09 301.85 986.07 312.93 C 1021.05 324.01 1054.77 335.62 1085.69 353.31 C 1116.62 370.99 1142.05 387.75 1168.75 410.25 C 1195.45 432.75 1216.46 453.44 1238.25 480.75 C 1260.04 508.06 1277.12 534.48 1293.77 566.23 C 1310.42 597.98 1323.07 630.90 1332.93 667.07 C 1342.78 703.24 1348.62 749.74 1349.40 788.74 C 1350.19 827.75 1344.83 877.54 1336.02 914.02 C 1327.22 950.51 1314.91 984.81 1299.08 1017.08 C 1283.24 1049.34 1266.58 1076.55 1245.23 1104.23 C 1223.88 1131.91 1203.11 1152.67 1176.77 1175.77 C 1150.43 1198.87 1126.50 1216.74 1095.75 1234.75 C 1065.01 1252.77 1034.07 1265.56 998.93 1277.93 C 963.78 1290.30 921.25 1297.36 882.00 1301.00 C 842.75 1304.64 788.73 1302.08 750.99 1295.01 C 713.25 1287.94 676.63 1277.15 642.92 1263.08 C 609.22 1249.00 580.86 1234.04 551.92 1214.08 C 522.98 1194.12 500.60 1175.61 475.75 1150.25 C 450.90 1124.89 432.22 1102.83 412.70 1073.30 C 393.18 1043.78 378.61 1014.40 364.68 980.32 C 350.75 946.25 342.04 907.16 336.00 869.00 C 329.96 830.84 328.90 777.52 333.93 738.93 C 338.96 700.34 347.57 659.97 360.31 625.31 C 373.04 590.64 387.62 561.36 406.30 531.30 C 424.98 501.25 443.30 477.21 467.75 451.75 C 492.20 426.30 513.49 406.40 542.25 386.25 C 571.01 366.09 597.79 349.77 631.22 335.22 C 664.66 320.67 700.08 308.71 738.00 302.00 C 775.92 295.29 826.67 287.90 868.00 292.00 Z"/>
</g>
<g fill="None" fill-opacity="0.0" stroke="#1119CC" stroke-opacity="1.00" stroke-width="0.3"><path d="
M 868.00 292.00 
C 826.67 287.90 775.92 295.29 738.00 302.00 C 700.08 308.71 664.66 320.67 631.22 335.22 C 597.79 349.77 571.01 366.09 542.25 386.25 C 513.49 406.40 492.20 426.30 467.75 451.75 C 443.30 477.21 424.98 501.25 406.30 531.30 C 387.62 561.36 373.04 590.64 360.31 625.31 C 347.57 659.97 338.96 700.34 333.93 738.93 C 328.90 777.52 329.96 830.84 336.00 869.00 C 342.04 907.16 350.75 946.25 364.68 980.32 C 378.61 1014.40 393.18 1043.78 412.70 1073.30 C 432.22 1102.83 450.90 1124.89 475.75 1150.25 C 500.60 1175.61 522.98 1194.12 551.92 1214.08 C 580.86 1234.04 609.22 1249.00 642.92 1263.08 C 676.63 1277.15 713.25 1287.94 750.99 1295.01 C 788.73 1302.08 842.75 1304.64 882.00 1301.00 C 921.25 1297.36 963.78 1290.30 998.93 1277.93 C 1034.07 1265.56 1065.01 1252.77 1095.75 1234.75 C 1126.50 1216.74 1150.43 1198.87 1176.77 1175.77 C 1203.11 1152.67 1223.88 1131.91 1245.23 1104.23 C 1266.58 1076.55 1283.24 1049.34 1299.08 1017.08 C 1314.91 984.81 1327.22 950.51 1336.02 914.02 C 1344.83 877.54 1350.19 827.75 1349.40 788.74 C 1348.62 749.74 1342.78 703.24 1332.93 667.07 C 1323.07 630.90 1310.42 597.98 1293.77 566.23 C 1277.12 534.48 1260.04 508.06 1238.25 480.75 C 1216.46 453.44 1195.45 432.75 1168.75 410.25 C 1142.05 387.75 1116.62 370.99 1085.69 353.31 C 1054.77 335.62 1021.05 324.01 986.07 312.93 C 951.09 301.85 906.06 295.59 869.00 292.00
M 830.00 1045.00 
C 816.99 1050.46 805.97 1053.67 791.98 1056.98 C 777.98 1060.29 760.94 1061.30 746.00 1062.00 C 731.06 1062.70 713.91 1059.98 699.78 1058.22 C 685.65 1056.46 670.91 1052.97 657.98 1049.02 C 645.04 1045.08 633.53 1039.55 621.78 1034.22 C 610.02 1028.90 600.22 1022.93 589.75 1016.25 C 579.29 1009.56 570.57 1001.84 561.25 993.75 C 551.92 985.67 544.12 978.30 536.25 968.75 C 528.38 959.20 520.73 950.56 514.25 939.75 C 507.76 928.95 501.97 918.24 496.70 906.31 C 491.42 894.37 487.10 882.91 483.22 869.78 C 479.35 856.64 476.62 841.30 475.00 827.00 C 473.38 812.70 472.79 797.02 474.00 783.00 C 475.21 768.98 476.97 752.31 480.00 739.00 C 483.02 725.68 487.77 712.60 492.32 700.32 C 496.88 688.04 502.88 677.90 508.77 666.77 C 514.66 655.64 521.72 646.06 529.25 636.25 C 536.78 626.44 544.27 617.78 552.92 608.92 C 561.57 600.06 570.30 593.64 580.08 586.08 C 589.86 578.52 599.46 571.50 610.70 565.70 C 621.93 559.89 632.19 554.08 644.69 549.69 C 657.20 545.31 670.33 541.06 684.07 538.07 C 697.82 535.08 714.24 533.07 729.00 532.00 C 743.76 530.93 762.28 532.71 776.22 534.78 C 790.16 536.85 805.01 539.79 817.68 544.32 C 830.35 548.85 842.35 553.04 853.70 559.31 C 865.04 565.57 874.47 571.08 884.75 578.25 C 895.03 585.43 903.74 592.62 913.25 600.75 C 922.76 608.89 929.04 617.52 937.25 626.75 C 945.46 635.98 952.24 645.45 958.92 656.08 C 965.60 666.71 971.05 677.78 976.31 689.69 C 981.57 701.60 986.04 713.05 989.78 726.22 C 993.51 739.40 996.28 754.74 998.00 769.00 C 999.72 783.27 1000.50 801.50 999.00 816.00 C 997.50 830.50 995.96 846.72 992.07 860.07 C 988.19 873.43 984.90 886.06 979.08 898.08 C 973.25 910.09 968.79 919.70 961.70 930.70 C 954.60 941.69 936.07 930.05 926.31 925.70 C 916.54 921.34 903.28 912.97 894.92 906.08 C 886.55 899.19 870.38 891.76 877.77 880.77 C 885.16 869.78 888.85 857.83 892.93 844.93 C 897.00 832.02 899.46 816.32 900.00 802.00 C 900.54 787.68 897.67 769.40 895.01 755.99 C 892.34 742.58 887.22 730.40 881.23 718.77 C 875.24 707.15 870.30 697.87 861.75 688.25 C 853.20 678.63 846.02 670.84 835.75 663.25 C 825.48 655.65 816.85 649.58 804.78 644.22 C 792.70 638.87 778.95 635.27 765.33 632.67 C 751.71 630.07 731.76 631.19 718.00 633.00 C 704.24 634.80 691.03 638.80 678.77 643.77 C 666.51 648.74 655.99 653.99 645.30 661.30 C 634.62 668.62 626.60 675.80 618.08 685.08 C 609.57 694.36 603.49 702.78 596.75 713.75 C 590.00 724.71 585.43 736.38 581.22 749.22 C 577.01 762.06 575.03 778.51 575.00 793.00 C 574.97 807.49 576.23 825.84 579.93 839.07 C 583.62 852.30 587.79 864.46 593.92 876.08 C 600.06 887.69 606.36 895.58 614.75 905.25 C 623.14 914.92 630.64 922.84 641.08 929.92 C 651.52 936.99 660.68 943.55 672.70 948.31 C 684.71 953.06 698.87 958.00 712.02 959.98 C 725.18 961.95 744.36 959.39 751.30 971.70 C 758.24 984.01 766.46 988.15 774.75 998.25 C 783.04 1008.35 792.18 1014.29 801.25 1022.75 C 810.32 1031.22 821.34 1036.42 830.00 1045.00
M 890.00 549.00 
C 900.67 545.64 909.93 542.78 921.01 540.01 C 932.08 537.23 943.92 534.97 955.67 533.67 C 967.42 532.37 982.84 531.11 995.00 532.00 C 1007.16 532.89 1020.58 534.07 1032.00 536.00 C 1043.42 537.93 1054.31 540.94 1064.68 544.32 C 1075.05 547.71 1084.57 551.92 1094.08 555.92 C 1103.58 559.93 1112.92 564.61 1121.08 569.92 C 1129.24 575.23 1138.57 580.49 1145.25 586.75 C 1151.93 593.01 1162.23 599.11 1167.25 605.75 C 1172.26 612.39 1186.98 620.57 1181.75 627.75 C 1176.52 634.93 1165.54 638.89 1159.25 646.25 C 1152.96 653.60 1143.62 655.75 1136.77 663.77 C 1129.92 671.79 1121.97 673.53 1114.25 682.25 C 1106.54 690.98 1100.56 680.93 1093.25 673.75 C 1085.93 666.57 1078.27 661.87 1069.77 656.23 C 1061.27 650.59 1051.91 647.58 1042.77 642.23 C 1033.63 636.88 1019.74 637.75 1010.00 634.00 C 1000.26 630.26 980.85 635.85 972.75 630.25 C 964.66 624.64 962.22 613.70 954.75 607.25 C 947.29 600.80 942.07 592.72 934.25 586.75 C 926.44 580.77 920.13 573.28 912.30 567.70 C 904.48 562.12 893.40 557.20 890.00 549.00
M 757.00 656.00 
C 767.39 657.74 780.93 661.59 790.22 665.78 C 799.52 669.97 811.05 674.04 817.75 681.25 C 824.45 688.46 837.58 692.80 840.92 702.08 C 844.25 711.36 831.27 720.74 829.08 731.08 C 826.88 741.41 821.04 752.64 819.22 764.22 C 817.41 775.80 815.72 792.08 816.78 804.22 C 817.84 816.36 818.47 830.70 822.32 841.68 C 826.17 852.66 828.44 863.29 833.92 873.08 C 839.41 882.86 844.42 891.24 851.30 899.70 C 858.18 908.15 864.68 913.79 872.75 921.25 C 880.82 928.70 888.82 934.01 898.23 939.77 C 907.64 945.53 917.02 949.21 927.68 953.32 C 938.34 957.43 949.94 960.61 962.01 961.99 C 974.08 963.37 991.67 963.22 1003.67 961.67 C 1015.67 960.12 1027.56 957.17 1038.22 953.22 C 1048.89 949.27 1059.12 946.48 1068.08 940.08 C 1077.03 933.67 1085.97 929.71 1093.08 921.08 C 1100.19 912.46 1107.58 903.88 1115.75 913.25 C 1123.92 922.62 1131.45 925.63 1138.75 933.25 C 1146.05 940.87 1156.37 946.71 1162.25 953.75 C 1168.12 960.80 1185.41 966.41 1179.75 974.75 C 1174.09 983.09 1164.63 989.48 1157.30 996.30 C 1149.97 1003.12 1141.72 1009.37 1133.25 1015.25 C 1124.79 1021.13 1115.86 1026.32 1106.30 1031.30 C 1096.74 1036.29 1086.43 1040.83 1075.93 1044.93 C 1065.42 1049.02 1054.47 1051.98 1042.98 1054.98 C 1031.48 1057.97 1018.49 1059.60 1005.98 1060.98 C 993.46 1062.36 976.54 1062.04 964.00 1061.00 C 951.46 1059.96 937.95 1058.57 926.33 1055.67 C 914.71 1052.78 903.89 1049.46 892.98 1046.02 C 882.06 1042.59 872.68 1036.96 862.77 1032.23 C 852.86 1027.50 844.70 1021.98 835.75 1016.25 C 826.81 1010.51 818.82 1004.01 810.75 997.25 C 802.69 990.48 796.22 983.82 788.75 976.25 C 781.28 968.68 775.74 961.18 769.08 952.92 C 762.42 944.65 756.70 935.86 751.70 926.31 C 746.69 916.75 741.34 908.31 737.08 897.92 C 732.81 887.53 729.26 877.36 726.02 865.98 C 722.79 854.59 720.13 842.07 718.22 829.78 C 716.31 817.49 717.11 802.54 717.00 790.00 C 716.89 777.46 718.60 762.81 721.00 751.00 C 723.40 739.18 726.31 727.03 729.98 715.98 C 733.64 704.92 737.42 695.53 742.31 685.31 C 747.19 675.08 752.18 666.24 757.00 656.00 Z"/>
</g>
<g fill="None" fill-opacity="0.0" stroke="#F8F9FB" stroke-opacity="1.00" stroke-width="0.3"><path d="
M 830.00 1045.00 
C 821.34 1036.42 810.32 1031.22 801.25 1022.75 C 792.18 1014.29 783.04 1008.35 774.75 998.25 C 766.46 988.15 758.24 984.01 751.30 971.70 C 744.36 959.39 725.18 961.95 712.02 959.98 C 698.87 958.00 684.71 953.06 672.70 948.31 C 660.68 943.55 651.52 936.99 641.08 929.92 C 630.64 922.84 623.14 914.92 614.75 905.25 C 606.36 895.58 600.06 887.69 593.92 876.08 C 587.79 864.46 583.62 852.30 579.93 839.07 C 576.23 825.84 574.97 807.49 575.00 793.00 C 575.03 778.51 577.01 762.06 581.22 749.22 C 585.43 736.38 590.00 724.71 596.75 713.75 C 603.49 702.78 609.57 694.36 618.08 685.08 C 626.60 675.80 634.62 668.62 645.30 661.30 C 655.99 653.99 666.51 648.74 678.77 643.77 C 691.03 638.80 704.24 634.80 718.00 633.00 C 731.76 631.19 751.71 630.07 765.33 632.67 C 778.95 635.27 792.70 638.87 804.78 644.22 C 816.85 649.58 825.48 655.65 835.75 663.25 C 846.02 670.84 853.20 678.63 861.75 688.25 C 870.30 697.87 875.24 707.15 881.23 718.77 C 887.22 730.40 892.34 742.58 895.01 755.99 C 897.67 769.40 900.54 787.68 900.00 802.00 C 899.46 816.32 897.00 832.02 892.93 844.93 C 888.85 857.83 885.16 869.78 877.77 880.77 C 870.38 891.76 886.55 899.19 894.92 906.08 C 903.28 912.97 916.54 921.34 926.31 925.70 C 936.07 930.05 954.60 941.69 961.70 930.70 C 968.79 919.70 973.25 910.09 979.08 898.08 C 984.90 886.06 988.19 873.43 992.07 860.07 C 995.96 846.72 997.50 830.50 999.00 816.00 C 1000.50 801.50 999.72 783.27 998.00 769.00 C 996.28 754.74 993.51 739.40 989.78 726.22 C 986.04 713.05 981.57 701.60 976.31 689.69 C 971.05 677.78 965.60 666.71 958.92 656.08 C 952.24 645.45 945.46 635.98 937.25 626.75 C 929.04 617.52 922.76 608.89 913.25 600.75 C 903.74 592.62 895.03 585.43 884.75 578.25 C 874.47 571.08 865.04 565.57 853.70 559.31 C 842.35 553.04 830.35 548.85 817.68 544.32 C 805.01 539.79 790.16 536.85 776.22 534.78 C 762.28 532.71 743.76 530.93 729.00 532.00 C 714.24 533.07 697.82 535.08 684.07 538.07 C 670.33 541.06 657.20 545.31 644.69 549.69 C 632.19 554.08 621.93 559.89 610.70 565.70 C 599.46 571.50 589.86 578.52 580.08 586.08 C 570.30 593.64 561.57 600.06 552.92 608.92 C 544.27 617.78 536.78 626.44 529.25 636.25 C 521.72 646.06 514.66 655.64 508.77 666.77 C 502.88 677.90 496.88 688.04 492.32 700.32 C 487.77 712.60 483.02 725.68 480.00 739.00 C 476.97 752.31 475.21 768.98 474.00 783.00 C 472.79 797.02 473.38 812.70 475.00 827.00 C 476.62 841.30 479.35 856.64 483.22 869.78 C 487.10 882.91 491.42 894.37 496.70 906.31 C 501.97 918.24 507.76 928.95 514.25 939.75 C 520.73 950.56 528.38 959.20 536.25 968.75 C 544.12 978.30 551.92 985.67 561.25 993.75 C 570.57 1001.84 579.29 1009.56 589.75 1016.25 C 600.22 1022.93 610.02 1028.90 621.78 1034.22 C 633.53 1039.55 645.04 1045.08 657.98 1049.02 C 670.91 1052.97 685.65 1056.46 699.78 1058.22 C 713.91 1059.98 731.06 1062.70 746.00 1062.00 C 760.94 1061.30 777.98 1060.29 791.98 1056.98 C 805.97 1053.67 816.99 1050.46 830.00 1045.00 Z"/>
</g>
<g fill="None" fill-opacity="0.0" stroke="#F8F9FB" stroke-opacity="1.00" stroke-width="0.3"><path d="
M 890.00 549.00 
C 893.40 557.20 904.48 562.12 912.30 567.70 C 920.13 573.28 926.44 580.77 934.25 586.75 C 942.07 592.72 947.29 600.80 954.75 607.25 C 962.22 613.70 964.66 624.64 972.75 630.25 C 980.85 635.85 1000.26 630.26 1010.00 634.00 C 1019.74 637.75 1033.63 636.88 1042.77 642.23 C 1051.91 647.58 1061.27 650.59 1069.77 656.23 C 1078.27 661.87 1085.93 666.57 1093.25 673.75 C 1100.56 680.93 1106.54 690.98 1114.25 682.25 C 1121.97 673.53 1129.92 671.79 1136.77 663.77 C 1143.62 655.75 1152.96 653.60 1159.25 646.25 C 1165.54 638.89 1176.52 634.93 1181.75 627.75 C 1186.98 620.57 1172.26 612.39 1167.25 605.75 C 1162.23 599.11 1151.93 593.01 1145.25 586.75 C 1138.57 580.49 1129.24 575.23 1121.08 569.92 C 1112.92 564.61 1103.58 559.93 1094.08 555.92 C 1084.57 551.92 1075.05 547.71 1064.68 544.32 C 1054.31 540.94 1043.42 537.93 1032.00 536.00 C 1020.58 534.07 1007.16 532.89 995.00 532.00 C 982.84 531.11 967.42 532.37 955.67 533.67 C 943.92 534.97 932.08 537.23 921.01 540.01 C 909.93 542.78 900.67 545.64 890.00 549.00 Z"/>
</g>
<g fill="None" fill-opacity="0.0" stroke="#F8F9FB" stroke-opacity="1.00" stroke-width="0.3"><path d="
M 757.00 656.00 
C 752.18 666.24 747.19 675.08 742.31 685.31 C 737.42 695.53 733.64 704.92 729.98 715.98 C 726.31 727.03 723.40 739.18 721.00 751.00 C 718.60 762.81 716.89 777.46 717.00 790.00 C 717.11 802.54 716.31 817.49 718.22 829.78 C 720.13 842.07 722.79 854.59 726.02 865.98 C 729.26 877.36 732.81 887.53 737.08 897.92 C 741.34 908.31 746.69 916.75 751.70 926.31 C 756.70 935.86 762.42 944.65 769.08 952.92 C 775.74 961.18 781.28 968.68 788.75 976.25 C 796.22 983.82 802.69 990.48 810.75 997.25 C 818.82 1004.01 826.81 1010.51 835.75 1016.25 C 844.70 1021.98 852.86 1027.50 862.77 1032.23 C 872.68 1036.96 882.06 1042.59 892.98 1046.02 C 903.89 1049.46 914.71 1052.78 926.33 1055.67 C 937.95 1058.57 951.46 1059.96 964.00 1061.00 C 976.54 1062.04 993.46 1062.36 1005.98 1060.98 C 1018.49 1059.60 1031.48 1057.97 1042.98 1054.98 C 1054.47 1051.98 1065.42 1049.02 1075.93 1044.93 C 1086.43 1040.83 1096.74 1036.29 1106.30 1031.30 C 1115.86 1026.32 1124.79 1021.13 1133.25 1015.25 C 1141.72 1009.37 1149.97 1003.12 1157.30 996.30 C 1164.63 989.48 1174.09 983.09 1179.75 974.75 C 1185.41 966.41 1168.12 960.80 1162.25 953.75 C 1156.37 946.71 1146.05 940.87 1138.75 933.25 C 1131.45 925.63 1123.92 922.62 1115.75 913.25 C 1107.58 903.88 1100.19 912.46 1093.08 921.08 C 1085.97 929.71 1077.03 933.67 1068.08 940.08 C 1059.12 946.48 1048.89 949.27 1038.22 953.22 C 1027.56 957.17 1015.67 960.12 1003.67 961.67 C 991.67 963.22 974.08 963.37 962.01 961.99 C 949.94 960.61 938.34 957.43 927.68 953.32 C 917.02 949.21 907.64 945.53 898.23 939.77 C 888.82 934.01 880.82 928.70 872.75 921.25 C 864.68 913.79 858.18 908.15 851.30 899.70 C 844.42 891.24 839.41 882.86 833.92 873.08 C 828.44 863.29 826.17 852.66 822.32 841.68 C 818.47 830.70 817.84 816.36 816.78 804.22 C 815.72 792.08 817.41 775.80 819.22 764.22 C 821.04 752.64 826.88 741.41 829.08 731.08 C 831.27 720.74 844.25 711.36 840.92 702.08 C 837.58 692.80 824.45 688.46 817.75 681.25 C 811.05 674.04 799.52 669.97 790.22 665.78 C 780.93 661.59 767.39 657.74 757.00 656.00 Z"/>
</g>
<g fill="#F8F9FB" fill-opacity="1.00" stroke="None">
<path d="
M 0.00 1539.00 
L 1663.00 1539.00
L 1663.00 0.00
L 0.00 0.00
L 0.00 1539.00
M 877.00 144.00 
C 916.48 147.82 964.27 153.19 1001.67 163.33 C 1039.07 173.46 1075.73 184.98 1109.68 200.32 C 1143.63 215.67 1172.73 231.52 1202.70 251.30 C 1232.67 271.09 1258.07 290.39 1284.75 314.25 C 1311.44 338.11 1332.67 360.60 1354.30 388.70 C 1375.93 416.80 1395.45 443.12 1412.75 475.25 C 1430.06 507.38 1445.34 538.39 1457.32 574.68 C 1469.31 610.96 1480.24 651.30 1485.78 691.22 C 1491.32 731.15 1494.41 785.55 1492.00 827.00 C 1489.59 868.45 1481.49 913.92 1472.07 952.07 C 1462.66 990.22 1449.64 1024.24 1434.23 1058.23 C 1418.82 1092.22 1402.63 1121.74 1382.25 1151.25 C 1361.86 1180.75 1342.99 1205.46 1318.25 1231.25 C 1293.50 1257.03 1270.78 1278.62 1242.30 1300.30 C 1213.83 1321.99 1187.95 1340.03 1155.77 1357.77 C 1123.59 1375.51 1091.05 1389.35 1054.98 1401.98 C 1018.90 1414.60 979.88 1425.03 940.00 1431.00 C 900.12 1436.97 845.66 1440.31 804.00 1438.00 C 762.35 1435.69 717.91 1427.99 679.78 1418.22 C 641.64 1408.46 606.08 1396.51 571.92 1381.08 C 537.77 1365.65 508.77 1350.21 478.92 1330.08 C 449.07 1309.95 423.46 1291.18 397.25 1266.75 C 371.03 1242.33 349.55 1220.61 327.25 1192.75 C 304.95 1164.90 287.08 1137.77 269.08 1105.92 C 251.08 1074.08 237.28 1042.62 224.22 1006.78 C 211.17 970.93 201.51 930.71 195.00 891.00 C 188.50 851.29 185.86 797.69 188.00 756.00 C 190.14 714.31 195.98 667.12 205.98 628.98 C 215.98 590.83 227.11 555.86 242.92 521.92 C 258.74 487.99 274.77 458.80 294.92 428.92 C 315.06 399.04 334.25 375.09 358.75 348.75 C 383.26 322.41 406.99 301.65 435.25 280.25 C 463.51 258.85 490.43 240.90 522.75 223.75 C 555.06 206.59 587.13 191.17 623.68 179.68 C 660.22 168.18 698.43 155.77 739.02 151.02 C 779.62 146.28 833.59 139.80 877.00 144.00 Z"/>
</g>
<g fill="#1119CC" fill-opacity="1.00" stroke="None">
<path d="
M 877.00 144.00 
C 833.59 139.80 779.62 146.28 739.02 151.02 C 698.43 155.77 660.22 168.18 623.68 179.68 C 587.13 191.17 555.06 206.59 522.75 223.75 C 490.43 240.90 463.51 258.85 435.25 280.25 C 406.99 301.65 383.26 322.41 358.75 348.75 C 334.25 375.09 315.06 399.04 294.92 428.92 C 274.77 458.80 258.74 487.99 242.92 521.92 C 227.11 555.86 215.98 590.83 205.98 628.98 C 195.98 667.12 190.14 714.31 188.00 756.00 C 185.86 797.69 188.50 851.29 195.00 891.00 C 201.51 930.71 211.17 970.93 224.22 1006.78 C 237.28 1042.62 251.08 1074.08 269.08 1105.92 C 287.08 1137.77 304.95 1164.90 327.25 1192.75 C 349.55 1220.61 371.03 1242.33 397.25 1266.75 C 423.46 1291.18 449.07 1309.95 478.92 1330.08 C 508.77 1350.21 537.77 1365.65 571.92 1381.08 C 606.08 1396.51 641.64 1408.46 679.78 1418.22 C 717.91 1427.99 762.35 1435.69 804.00 1438.00 C 845.66 1440.31 900.12 1436.97 940.00 1431.00 C 979.88 1425.03 1018.90 1414.60 1054.98 1401.98 C 1091.05 1389.35 1123.59 1375.51 1155.77 1357.77 C 1187.95 1340.03 1213.83 1321.99 1242.30 1300.30 C 1270.78 1278.62 1293.50 1257.03 1318.25 1231.25 C 1342.99 1205.46 1361.86 1180.75 1382.25 1151.25 C 1402.63 1121.74 1418.82 1092.22 1434.23 1058.23 C 1449.64 1024.24 1462.66 990.22 1472.07 952.07 C 1481.49 913.92 1489.59 868.45 1492.00 827.00 C 1494.41 785.55 1491.32 731.15 1485.78 691.22 C 1480.24 651.30 1469.31 610.96 1457.32 574.68 C 1445.34 538.39 1430.06 507.38 1412.75 475.25 C 1395.45 443.12 1375.93 416.80 1354.30 388.70 C 1332.67 360.60 1311.44 338.11 1284.75 314.25 C 1258.07 290.39 1232.67 271.09 1202.70 251.30 C 1172.73 231.52 1143.63 215.67 1109.68 200.32 C 1075.73 184.98 1039.07 173.46 1001.67 163.33 C 964.27 153.19 916.48 147.82 877.00 144.00
M 859.00 186.00 
C 898.03 189.78 945.62 193.07 982.67 202.33 C 1019.72 211.59 1054.80 223.08 1088.22 237.78 C 1121.64 252.47 1149.77 267.62 1179.25 286.75 C 1208.73 305.88 1232.40 324.92 1258.25 348.75 C 1284.10 372.58 1304.97 394.19 1326.30 421.70 C 1347.63 449.21 1365.32 474.16 1382.25 505.75 C 1399.19 537.33 1412.62 568.65 1424.98 604.02 C 1437.34 639.40 1445.91 679.86 1451.00 719.00 C 1456.09 758.14 1458.28 810.16 1454.00 850.00 C 1449.72 889.84 1442.99 932.66 1432.07 969.07 C 1421.16 1005.49 1408.98 1037.19 1392.70 1069.69 C 1376.41 1102.20 1359.60 1128.46 1339.23 1157.23 C 1318.86 1186.00 1297.90 1207.78 1273.25 1232.25 C 1248.60 1256.72 1225.40 1276.15 1196.92 1295.92 C 1168.43 1315.68 1140.91 1332.84 1108.31 1348.31 C 1075.70 1363.77 1042.41 1377.06 1005.93 1386.93 C 969.45 1396.80 926.76 1405.17 887.00 1408.00 C 847.24 1410.83 794.91 1409.54 756.00 1404.00 C 717.08 1398.46 678.39 1388.63 642.98 1377.02 C 607.57 1365.42 576.29 1351.15 544.77 1334.23 C 513.26 1317.31 486.91 1299.92 459.30 1278.70 C 431.70 1257.47 409.71 1237.42 386.10 1211.90 C 362.49 1186.38 342.74 1162.58 323.75 1133.25 C 304.75 1103.93 288.26 1075.44 274.08 1041.92 C 259.89 1008.41 247.80 974.31 239.07 936.93 C 230.35 899.55 224.70 854.09 223.02 813.98 C 221.35 773.86 227.34 722.75 233.93 684.93 C 240.52 647.10 251.89 609.38 265.31 575.31 C 278.73 541.23 293.88 511.09 311.92 480.92 C 329.96 450.75 348.25 426.00 370.77 399.77 C 393.29 373.54 415.44 352.18 442.25 330.25 C 469.05 308.31 494.00 288.99 524.75 271.75 C 555.50 254.50 584.68 238.83 619.23 226.23 C 653.78 213.63 691.62 201.70 730.00 196.00 C 768.39 190.30 817.88 182.02 859.00 186.00 Z"/>
</g>
<g fill="#F8F9FB" fill-opacity="1.00" stroke="None">
<path d="
M 859.00 186.00 
C 817.88 182.02 768.39 190.30 730.00 196.00 C 691.62 201.70 653.78 213.63 619.23 226.23 C 584.68 238.83 555.50 254.50 524.75 271.75 C 494.00 288.99 469.05 308.31 442.25 330.25 C 415.44 352.18 393.29 373.54 370.77 399.77 C 348.25 426.00 329.96 450.75 311.92 480.92 C 293.88 511.09 278.73 541.23 265.31 575.31 C 251.89 609.38 240.52 647.10 233.93 684.93 C 227.34 722.75 221.35 773.86 223.02 813.98 C 224.70 854.09 230.35 899.55 239.07 936.93 C 247.80 974.31 259.89 1008.41 274.08 1041.92 C 288.26 1075.44 304.75 1103.93 323.75 1133.25 C 342.74 1162.58 362.49 1186.38 386.10 1211.90 C 409.71 1237.42 431.70 1257.47 459.30 1278.70 C 486.91 1299.92 513.26 1317.31 544.77 1334.23 C 576.29 1351.15 607.57 1365.42 642.98 1377.02 C 678.39 1388.63 717.08 1398.46 756.00 1404.00 C 794.91 1409.54 847.24 1410.83 887.00 1408.00 C 926.76 1405.17 969.45 1396.80 1005.93 1386.93 C 1042.41 1377.06 1075.70 1363.77 1108.31 1348.31 C 1140.91 1332.84 1168.43 1315.68 1196.92 1295.92 C 1225.40 1276.15 1248.60 1256.72 1273.25 1232.25 C 1297.90 1207.78 1318.86 1186.00 1339.23 1157.23 C 1359.60 1128.46 1376.41 1102.20 1392.70 1069.69 C 1408.98 1037.19 1421.16 1005.49 1432.07 969.07 C 1442.99 932.66 1449.72 889.84 1454.00 850.00 C 1458.28 810.16 1456.09 758.14 1451.00 719.00 C 1445.91 679.86 1437.34 639.40 1424.98 604.02 C 1412.62 568.65 1399.19 537.33 1382.25 505.75 C 1365.32 474.16 1347.63 449.21 1326.30 421.70 C 1304.97 394.19 1284.10 372.58 1258.25 348.75 C 1232.40 324.92 1208.73 305.88 1179.25 286.75 C 1149.77 267.62 1121.64 252.47 1088.22 237.78 C 1054.80 223.08 1019.72 211.59 982.67 202.33 C 945.62 193.07 898.03 189.78 859.00 186.00
M 869.00 292.00 
C 906.06 295.59 951.09 301.85 986.07 312.93 C 1021.05 324.01 1054.77 335.62 1085.69 353.31 C 1116.62 370.99 1142.05 387.75 1168.75 410.25 C 1195.45 432.75 1216.46 453.44 1238.25 480.75 C 1260.04 508.06 1277.12 534.48 1293.77 566.23 C 1310.42 597.98 1323.07 630.90 1332.93 667.07 C 1342.78 703.24 1348.62 749.74 1349.40 788.74 C 1350.19 827.75 1344.83 877.54 1336.02 914.02 C 1327.22 950.51 1314.91 984.81 1299.08 1017.08 C 1283.24 1049.34 1266.58 1076.55 1245.23 1104.23 C 1223.88 1131.91 1203.11 1152.67 1176.77 1175.77 C 1150.43 1198.87 1126.50 1216.74 1095.75 1234.75 C 1065.01 1252.77 1034.07 1265.56 998.93 1277.93 C 963.78 1290.30 921.25 1297.36 882.00 1301.00 C 842.75 1304.64 788.73 1302.08 750.99 1295.01 C 713.25 1287.94 676.63 1277.15 642.92 1263.08 C 609.22 1249.00 580.86 1234.04 551.92 1214.08 C 522.98 1194.12 500.60 1175.61 475.75 1150.25 C 450.90 1124.89 432.22 1102.83 412.70 1073.30 C 393.18 1043.78 378.61 1014.40 364.68 980.32 C 350.75 946.25 342.04 907.16 336.00 869.00 C 329.96 830.84 328.90 777.52 333.93 738.93 C 338.96 700.34 347.57 659.97 360.31 625.31 C 373.04 590.64 387.62 561.36 406.30 531.30 C 424.98 501.25 443.30 477.21 467.75 451.75 C 492.20 426.30 513.49 406.40 542.25 386.25 C 571.01 366.09 597.79 349.77 631.22 335.22 C 664.66 320.67 700.08 308.71 738.00 302.00 C 775.92 295.29 826.67 287.90 868.00 292.00 Z"/>
</g>
<g fill="#1119CC" fill-opacity="1.00" stroke="None">
<path d="
M 868.00 292.00 
C 826.67 287.90 775.92 295.29 738.00 302.00 C 700.08 308.71 664.66 320.67 631.22 335.22 C 597.79 349.77 571.01 366.09 542.25 386.25 C 513.49 406.40 492.20 426.30 467.75 451.75 C 443.30 477.21 424.98 501.25 406.30 531.30 C 387.62 561.36 373.04 590.64 360.31 625.31 C 347.57 659.97 338.96 700.34 333.93 738.93 C 328.90 777.52 329.96 830.84 336.00 869.00 C 342.04 907.16 350.75 946.25 364.68 980.32 C 378.61 1014.40 393.18 1043.78 412.70 1073.30 C 432.22 1102.83 450.90 1124.89 475.75 1150.25 C 500.60 1175.61 522.98 1194.12 551.92 1214.08 C 580.86 1234.04 609.22 1249.00 642.92 1263.08 C 676.63 1277.15 713.25 1287.94 750.99 1295.01 C 788.73 1302.08 842.75 1304.64 882.00 1301.00 C 921.25 1297.36 963.78 1290.30 998.93 1277.93 C 1034.07 1265.56 1065.01 1252.77 1095.75 1234.75 C 1126.50 1216.74 1150.43 1198.87 1176.77 1175.77 C 1203.11 1152.67 1223.88 1131.91 1245.23 1104.23 C 1266.58 1076.55 1283.24 1049.34 1299.08 1017.08 C 1314.91 984.81 1327.22 950.51 1336.02 914.02 C 1344.83 877.54 1350.19 827.75 1349.40 788.74 C 1348.62 749.74 1342.78 703.24 1332.93 667.07 C 1323.07 630.90 1310.42 597.98 1293.77 566.23 C 1277.12 534.48 1260.04 508.06 1238.25 480.75 C 1216.46 453.44 1195.45 432.75 1168.75 410.25 C 1142.05 387.75 1116.62 370.99 1085.69 353.31 C 1054.77 335.62 1021.05 324.01 986.07 312.93 C 951.09 301.85 906.06 295.59 869.00 292.00
M 830.00 1045.00 
C 816.99 1050.46 805.97 1053.67 791.98 1056.98 C 777.98 1060.29 760.94 1061.30 746.00 1062.00 C 731.06 1062.70 713.91 1059.98 699.78 1058.22 C 685.65 1056.46 670.91 1052.97 657.98 1049.02 C 645.04 1045.08 633.53 1039.55 621.78 1034.22 C 610.02 1028.90 600.22 1022.93 589.75 1016.25 C 579.29 1009.56 570.57 1001.84 561.25 993.75 C 551.92 985.67 544.12 978.30 536.25 968.75 C 528.38 959.20 520.73 950.56 514.25 939.75 C 507.76 928.95 501.97 918.24 496.70 906.31 C 491.42 894.37 487.10 882.91 483.22 869.78 C 479.35 856.64 476.62 841.30 475.00 827.00 C 473.38 812.70 472.79 797.02 474.00 783.00 C 475.21 768.98 476.97 752.31 480.00 739.00 C 483.02 725.68 487.77 712.60 492.32 700.32 C 496.88 688.04 502.88 677.90 508.77 666.77 C 514.66 655.64 521.72 646.06 529.25 636.25 C 536.78 626.44 544.27 617.78 552.92 608.92 C 561.57 600.06 570.30 593.64 580.08 586.08 C 589.86 578.52 599.46 571.50 610.70 565.70 C 621.93 559.89 632.19 554.08 644.69 549.69 C 657.20 545.31 670.33 541.06 684.07 538.07 C 697.82 535.08 714.24 533.07 729.00 532.00 C 743.76 530.93 762.28 532.71 776.22 534.78 C 790.16 536.85 805.01 539.79 817.68 544.32 C 830.35 548.85 842.35 553.04 853.70 559.31 C 865.04 565.57 874.47 571.08 884.75 578.25 C 895.03 585.43 903.74 592.62 913.25 600.75 C 922.76 608.89 929.04 617.52 937.25 626.75 C 945.46 635.98 952.24 645.45 958.92 656.08 C 965.60 666.71 971.05 677.78 976.31 689.69 C 981.57 701.60 986.04 713.05 989.78 726.22 C 993.51 739.40 996.28 754.74 998.00 769.00 C 999.72 783.27 1000.50 801.50 999.00 816.00 C 997.50 830.50 995.96 846.72 992.07 860.07 C 988.19 873.43 984.90 886.06 979.08 898.08 C 973.25 910.09 968.79 919.70 961.70 930.70 C 954.60 941.69 936.07 930.05 926.31 925.70 C 916.54 921.34 903.28 912.97 894.92 906.08 C 886.55 899.19 870.38 891.76 877.77 880.77 C 885.16 869.78 888.85 857.83 892.93 844.93 C 897.00 832.02 899.46 816.32 900.00 802.00 C 900.54 787.68 897.67 769.40 895.01 755.99 C 892.34 742.58 887.22 730.40 881.23 718.77 C 875.24 707.15 870.30 697.87 861.75 688.25 C 853.20 678.63 846.02 670.84 835.75 663.25 C 825.48 655.65 816.85 649.58 804.78 644.22 C 792.70 638.87 778.95 635.27 765.33 632.67 C 751.71 630.07 731.76 631.19 718.00 633.00 C 704.24 634.80 691.03 638.80 678.77 643.77 C 666.51 648.74 655.99 653.99 645.30 661.30 C 634.62 668.62 626.60 675.80 618.08 685.08 C 609.57 694.36 603.49 702.78 596.75 713.75 C 590.00 724.71 585.43 736.38 581.22 749.22 C 577.01 762.06 575.03 778.51 575.00 793.00 C 574.97 807.49 576.23 825.84 579.93 839.07 C 583.62 852.30 587.79 864.46 593.92 876.08 C 600.06 887.69 606.36 895.58 614.75 905.25 C 623.14 914.92 630.64 922.84 641.08 929.92 C 651.52 936.99 660.68 943.55 672.70 948.31 C 684.71 953.06 698.87 958.00 712.02 959.98 C 725.18 961.95 744.36 959.39 751.30 971.70 C 758.24 984.01 766.46 988.15 774.75 998.25 C 783.04 1008.35 792.18 1014.29 801.25 1022.75 C 810.32 1031.22 821.34 1036.42 830.00 1045.00
M 890.00 549.00 
C 900.67 545.64 909.93 542.78 921.01 540.01 C 932.08 537.23 943.92 534.97 955.67 533.67 C 967.42 532.37 982.84 531.11 995.00 532.00 C 1007.16 532.89 1020.58 534.07 1032.00 536.00 C 1043.42 537.93 1054.31 540.94 1064.68 544.32 C 1075.05 547.71 1084.57 551.92 1094.08 555.92 C 1103.58 559.93 1112.92 564.61 1121.08 569.92 C 1129.24 575.23 1138.57 580.49 1145.25 586.75 C 1151.93 593.01 1162.23 599.11 1167.25 605.75 C 1172.26 612.39 1186.98 620.57 1181.75 627.75 C 1176.52 634.93 1165.54 638.89 1159.25 646.25 C 1152.96 653.60 1143.62 655.75 1136.77 663.77 C 1129.92 671.79 1121.97 673.53 1114.25 682.25 C 1106.54 690.98 1100.56 680.93 1093.25 673.75 C 1085.93 666.57 1078.27 661.87 1069.77 656.23 C 1061.27 650.59 1051.91 647.58 1042.77 642.23 C 1033.63 636.88 1019.74 637.75 1010.00 634.00 C 1000.26 630.26 980.85 635.85 972.75 630.25 C 964.66 624.64 962.22 613.70 954.75 607.25 C 947.29 600.80 942.07 592.72 934.25 586.75 C 926.44 580.77 920.13 573.28 912.30 567.70 C 904.48 562.12 893.40 557.20 890.00 549.00
M 757.00 656.00 
C 767.39 657.74 780.93 661.59 790.22 665.78 C 799.52 669.97 811.05 674.04 817.75 681.25 C 824.45 688.46 837.58 692.80 840.92 702.08 C 844.25 711.36 831.27 720.74 829.08 731.08 C 826.88 741.41 821.04 752.64 819.22 764.22 C 817.41 775.80 815.72 792.08 816.78 804.22 C 817.84 816.36 818.47 830.70 822.32 841.68 C 826.17 852.66 828.44 863.29 833.92 873.08 C 839.41 882.86 844.42 891.24 851.30 899.70 C 858.18 908.15 864.68 913.79 872.75 921.25 C 880.82 928.70 888.82 934.01 898.23 939.77 C 907.64 945.53 917.02 949.21 927.68 953.32 C 938.34 957.43 949.94 960.61 962.01 961.99 C 974.08 963.37 991.67 963.22 1003.67 961.67 C 1015.67 960.12 1027.56 957.17 1038.22 953.22 C 1048.89 949.27 1059.12 946.48 1068.08 940.08 C 1077.03 933.67 1085.97 929.71 1093.08 921.08 C 1100.19 912.46 1107.58 903.88 1115.75 913.25 C 1123.92 922.62 1131.45 925.63 1138.75 933.25 C 1146.05 940.87 1156.37 946.71 1162.25 953.75 C 1168.12 960.80 1185.41 966.41 1179.75 974.75 C 1174.09 983.09 1164.63 989.48 1157.30 996.30 C 1149.97 1003.12 1141.72 1009.37 1133.25 1015.25 C 1124.79 1021.13 1115.86 1026.32 1106.30 1031.30 C 1096.74 1036.29 1086.43 1040.83 1075.93 1044.93 C 1065.42 1049.02 1054.47 1051.98 1042.98 1054.98 C 1031.48 1057.97 1018.49 1059.60 1005.98 1060.98 C 993.46 1062.36 976.54 1062.04 964.00 1061.00 C 951.46 1059.96 937.95 1058.57 926.33 1055.67 C 914.71 1052.78 903.89 1049.46 892.98 1046.02 C 882.06 1042.59 872.68 1036.96 862.77 1032.23 C 852.86 1027.50 844.70 1021.98 835.75 1016.25 C 826.81 1010.51 818.82 1004.01 810.75 997.25 C 802.69 990.48 796.22 983.82 788.75 976.25 C 781.28 968.68 775.74 961.18 769.08 952.92 C 762.42 944.65 756.70 935.86 751.70 926.31 C 746.69 916.75 741.34 908.31 737.08 897.92 C 732.81 887.53 729.26 877.36 726.02 865.98 C 722.79 854.59 720.13 842.07 718.22 829.78 C 716.31 817.49 717.11 802.54 717.00 790.00 C 716.89 777.46 718.60 762.81 721.00 751.00 C 723.40 739.18 726.31 727.03 729.98 715.98 C 733.64 704.92 737.42 695.53 742.31 685.31 C 747.19 675.08 752.18 666.24 757.00 656.00 Z"/>
</g>
<g fill="#F8F9FB" fill-opacity="1.00" stroke="None">
<path d="
M 830.00 1045.00 
C 821.34 1036.42 810.32 1031.22 801.25 1022.75 C 792.18 1014.29 783.04 1008.35 774.75 998.25 C 766.46 988.15 758.24 984.01 751.30 971.70 C 744.36 959.39 725.18 961.95 712.02 959.98 C 698.87 958.00 684.71 953.06 672.70 948.31 C 660.68 943.55 651.52 936.99 641.08 929.92 C 630.64 922.84 623.14 914.92 614.75 905.25 C 606.36 895.58 600.06 887.69 593.92 876.08 C 587.79 864.46 583.62 852.30 579.93 839.07 C 576.23 825.84 574.97 807.49 575.00 793.00 C 575.03 778.51 577.01 762.06 581.22 749.22 C 585.43 736.38 590.00 724.71 596.75 713.75 C 603.49 702.78 609.57 694.36 618.08 685.08 C 626.60 675.80 634.62 668.62 645.30 661.30 C 655.99 653.99 666.51 648.74 678.77 643.77 C 691.03 638.80 704.24 634.80 718.00 633.00 C 731.76 631.19 751.71 630.07 765.33 632.67 C 778.95 635.27 792.70 638.87 804.78 644.22 C 816.85 649.58 825.48 655.65 835.75 663.25 C 846.02 670.84 853.20 678.63 861.75 688.25 C 870.30 697.87 875.24 707.15 881.23 718.77 C 887.22 730.40 892.34 742.58 895.01 755.99 C 897.67 769.40 900.54 787.68 900.00 802.00 C 899.46 816.32 897.00 832.02 892.93 844.93 C 888.85 857.83 885.16 869.78 877.77 880.77 C 870.38 891.76 886.55 899.19 894.92 906.08 C 903.28 912.97 916.54 921.34 926.31 925.70 C 936.07 930.05 954.60 941.69 961.70 930.70 C 968.79 919.70 973.25 910.09 979.08 898.08 C 984.90 886.06 988.19 873.43 992.07 860.07 C 995.96 846.72 997.50 830.50 999.00 816.00 C 1000.50 801.50 999.72 783.27 998.00 769.00 C 996.28 754.74 993.51 739.40 989.78 726.22 C 986.04 713.05 981.57 701.60 976.31 689.69 C 971.05 677.78 965.60 666.71 958.92 656.08 C 952.24 645.45 945.46 635.98 937.25 626.75 C 929.04 617.52 922.76 608.89 913.25 600.75 C 903.74 592.62 895.03 585.43 884.75 578.25 C 874.47 571.08 865.04 565.57 853.70 559.31 C 842.35 553.04 830.35 548.85 817.68 544.32 C 805.01 539.79 790.16 536.85 776.22 534.78 C 762.28 532.71 743.76 530.93 729.00 532.00 C 714.24 533.07 697.82 535.08 684.07 538.07 C 670.33 541.06 657.20 545.31 644.69 549.69 C 632.19 554.08 621.93 559.89 610.70 565.70 C 599.46 571.50 589.86 578.52 580.08 586.08 C 570.30 593.64 561.57 600.06 552.92 608.92 C 544.27 617.78 536.78 626.44 529.25 636.25 C 521.72 646.06 514.66 655.64 508.77 666.77 C 502.88 677.90 496.88 688.04 492.32 700.32 C 487.77 712.60 483.02 725.68 480.00 739.00 C 476.97 752.31 475.21 768.98 474.00 783.00 C 472.79 797.02 473.38 812.70 475.00 827.00 C 476.62 841.30 479.35 856.64 483.22 869.78 C 487.10 882.91 491.42 894.37 496.70 906.31 C 501.97 918.24 507.76 928.95 514.25 939.75 C 520.73 950.56 528.38 959.20 536.25 968.75 C 544.12 978.30 551.92 985.67 561.25 993.75 C 570.57 1001.84 579.29 1009.56 589.75 1016.25 C 600.22 1022.93 610.02 1028.90 621.78 1034.22 C 633.53 1039.55 645.04 1045.08 657.98 1049.02 C 670.91 1052.97 685.65 1056.46 699.78 1058.22 C 713.91 1059.98 731.06 1062.70 746.00 1062.00 C 760.94 1061.30 777.98 1060.29 791.98 1056.98 C 805.97 1053.67 816.99 1050.46 830.00 1045.00 Z"/>
</g>
<g fill="#F8F9FB" fill-opacity="1.00" stroke="None">
<path d="
M 890.00 549.00 
C 893.40 557.20 904.48 562.12 912.30 567.70 C 920.13 573.28 926.44 580.77 934.25 586.75 C 942.07 592.72 947.29 600.80 954.75 607.25 C 962.22 613.70 964.66 624.64 972.75 630.25 C 980.85 635.85 1000.26 630.26 1010.00 634.00 C 1019.74 637.75 1033.63 636.88 1042.77 642.23 C 1051.91 647.58 1061.27 650.59 1069.77 656.23 C 1078.27 661.87 1085.93 666.57 1093.25 673.75 C 1100.56 680.93 1106.54 690.98 1114.25 682.25 C 1121.97 673.53 1129.92 671.79 1136.77 663.77 C 1143.62 655.75 1152.96 653.60 1159.25 646.25 C 1165.54 638.89 1176.52 634.93 1181.75 627.75 C 1186.98 620.57 1172.26 612.39 1167.25 605.75 C 1162.23 599.11 1151.93 593.01 1145.25 586.75 C 1138.57 580.49 1129.24 575.23 1121.08 569.92 C 1112.92 564.61 1103.58 559.93 1094.08 555.92 C 1084.57 551.92 1075.05 547.71 1064.68 544.32 C 1054.31 540.94 1043.42 537.93 1032.00 536.00 C 1020.58 534.07 1007.16 532.89 995.00 532.00 C 982.84 531.11 967.42 532.37 955.67 533.67 C 943.92 534.97 932.08 537.23 921.01 540.01 C 909.93 542.78 900.67 545.64 890.00 549.00 Z"/>
</g>
<g fill="#F8F9FB" fill-opacity="1.00" stroke="None">
<path d="
M 757.00 656.00 
C 752.18 666.24 747.19 675.08 742.31 685.31 C 737.42 695.53 733.64 704.92 729.98 715.98 C 726.31 727.03 723.40 739.18 721.00 751.00 C 718.60 762.81 716.89 777.46 717.00 790.00 C 717.11 802.54 716.31 817.49 718.22 829.78 C 720.13 842.07 722.79 854.59 726.02 865.98 C 729.26 877.36 732.81 887.53 737.08 897.92 C 741.34 908.31 746.69 916.75 751.70 926.31 C 756.70 935.86 762.42 944.65 769.08 952.92 C 775.74 961.18 781.28 968.68 788.75 976.25 C 796.22 983.82 802.69 990.48 810.75 997.25 C 818.82 1004.01 826.81 1010.51 835.75 1016.25 C 844.70 1021.98 852.86 1027.50 862.77 1032.23 C 872.68 1036.96 882.06 1042.59 892.98 1046.02 C 903.89 1049.46 914.71 1052.78 926.33 1055.67 C 937.95 1058.57 951.46 1059.96 964.00 1061.00 C 976.54 1062.04 993.46 1062.36 1005.98 1060.98 C 1018.49 1059.60 1031.48 1057.97 1042.98 1054.98 C 1054.47 1051.98 1065.42 1049.02 1075.93 1044.93 C 1086.43 1040.83 1096.74 1036.29 1106.30 1031.30 C 1115.86 1026.32 1124.79 1021.13 1133.25 1015.25 C 1141.72 1009.37 1149.97 1003.12 1157.30 996.30 C 1164.63 989.48 1174.09 983.09 1179.75 974.75 C 1185.41 966.41 1168.12 960.80 1162.25 953.75 C 1156.37 946.71 1146.05 940.87 1138.75 933.25 C 1131.45 925.63 1123.92 922.62 1115.75 913.25 C 1107.58 903.88 1100.19 912.46 1093.08 921.08 C 1085.97 929.71 1077.03 933.67 1068.08 940.08 C 1059.12 946.48 1048.89 949.27 1038.22 953.22 C 1027.56 957.17 1015.67 960.12 1003.67 961.67 C 991.67 963.22 974.08 963.37 962.01 961.99 C 949.94 960.61 938.34 957.43 927.68 953.32 C 917.02 949.21 907.64 945.53 898.23 939.77 C 888.82 934.01 880.82 928.70 872.75 921.25 C 864.68 913.79 858.18 908.15 851.30 899.70 C 844.42 891.24 839.41 882.86 833.92 873.08 C 828.44 863.29 826.17 852.66 822.32 841.68 C 818.47 830.70 817.84 816.36 816.78 804.22 C 815.72 792.08 817.41 775.80 819.22 764.22 C 821.04 752.64 826.88 741.41 829.08 731.08 C 831.27 720.74 844.25 711.36 840.92 702.08 C 837.58 692.80 824.45 688.46 817.75 681.25 C 811.05 674.04 799.52 669.97 790.22 665.78 C 780.93 661.59 767.39 657.74 757.00 656.00 Z"/>
</g>
</svg>